<svg width="85" height="85" viewBox="0 0 85 85" fill="none" xmlns="http://www.w3.org/2000/svg">
<g opacity="0.9">
<path d="M6.95642 39.5364H42.5001V45.4603H6.95642V39.5364Z" fill="#00A651"/>
<path d="M1.03247 24.7266H30.6522V30.6505H1.03247V24.7266Z" fill="#00A651"/>
<path d="M83.7275 41.3314L74.8416 20.5976C74.6136 20.0647 74.234 19.6105 73.7501 19.2914C73.2662 18.9723 72.6992 18.8023 72.1196 18.8027H63.2337V12.8787C63.2337 12.0932 62.9216 11.3398 62.3661 10.7843C61.8106 10.2288 61.0572 9.91675 60.2717 9.91675H12.8801V15.8407H57.3097V53.0312C55.96 53.8149 54.7789 54.8581 53.8343 56.1005C52.8898 57.343 52.2005 58.7601 51.8064 60.2703H33.1933C32.4724 57.4781 30.7579 55.0448 28.3712 53.4263C25.9845 51.8079 23.0895 51.1154 20.2288 51.4788C17.3681 51.8421 14.7381 53.2364 12.8318 55.4001C10.9255 57.5638 9.87378 60.3485 9.87378 63.2322C9.87378 66.1159 10.9255 68.9006 12.8318 71.0644C14.7381 73.2281 17.3681 74.6223 20.2288 74.9857C23.0895 75.3491 25.9845 74.6566 28.3712 73.0382C30.7579 71.4197 32.4724 68.9863 33.1933 66.1942H51.8064C52.4507 68.7363 53.9243 70.9909 55.9939 72.6015C58.0636 74.212 60.6112 75.0864 63.2337 75.0864C65.8561 75.0864 68.4037 74.212 70.4734 72.6015C72.543 70.9909 74.0166 68.7363 74.6609 66.1942H81.0055C81.791 66.1942 82.5444 65.8822 83.0999 65.3267C83.6554 64.7712 83.9675 64.0178 83.9675 63.2322V42.4984C83.9676 42.0972 83.886 41.7001 83.7275 41.3314ZM21.766 69.1562C20.5944 69.1562 19.4491 68.8088 18.4749 68.1578C17.5007 67.5069 16.7414 66.5817 16.293 65.4992C15.8447 64.4168 15.7274 63.2257 15.9559 62.0765C16.1845 60.9274 16.7487 59.8719 17.5772 59.0434C18.4057 58.2149 19.4612 57.6507 20.6103 57.4221C21.7595 57.1936 22.9506 57.3109 24.033 57.7592C25.1155 58.2076 26.0407 58.9669 26.6916 59.9411C27.3426 60.9153 27.69 62.0606 27.69 63.2322C27.6884 64.8029 27.0638 66.3088 25.9532 67.4194C24.8426 68.53 23.3367 69.1546 21.766 69.1562ZM63.2337 24.7266H70.1647L76.5151 39.5365H63.2337V24.7266ZM63.2337 69.1562C62.062 69.1562 60.9167 68.8088 59.9425 68.1578C58.9683 67.5069 58.209 66.5817 57.7606 65.4992C57.3123 64.4168 57.195 63.2257 57.4235 62.0765C57.6521 60.9274 58.2163 59.8719 59.0448 59.0434C59.8733 58.2149 60.9288 57.6507 62.0779 57.4221C63.2271 57.1936 64.4182 57.3109 65.5006 57.7592C66.5831 58.2076 67.5083 58.9669 68.1592 59.9411C68.8102 60.9153 69.1576 62.0606 69.1576 63.2322C69.156 64.8029 68.5314 66.3088 67.4208 67.4194C66.3102 68.53 64.8043 69.1546 63.2337 69.1562ZM78.0435 60.2703H74.6609C74.0085 57.7331 72.5326 55.4842 70.4645 53.8761C68.3965 52.268 65.8533 51.3916 63.2337 51.3844V45.4604H78.0435V60.2703Z" fill="#00A651"/>
</g>
</svg>
