<svg width="75" height="75" viewBox="0 0 75 75" fill="none" xmlns="http://www.w3.org/2000/svg">
<g opacity="0.9" clip-path="url(#clip0)">
<path d="M74.9999 38.5125C74.9999 33.6234 71.0421 31.0625 65.6874 31.0625H50.089C51.2531 26.8718 51.7187 22.914 51.7187 19.4219C51.7187 5.91875 47.9937 3.125 44.7343 3.125C42.639 3.125 41.0093 3.35781 38.914 4.52187C38.2156 4.9875 37.9828 5.45312 37.75 6.15156L35.4219 18.7234C32.8609 25.2422 26.575 31.0625 21.4531 35.0203V68.3124C23.3156 68.3124 25.1781 69.2437 27.5062 70.4077C30.0672 71.5718 32.6281 72.9687 35.4219 72.9687H57.539C62.1953 72.9687 65.6874 69.2437 65.6874 65.9843C65.6874 65.2858 65.6874 64.8202 65.4546 64.3546C68.2484 63.1905 70.3437 60.8624 70.3437 57.8359C70.3437 56.439 70.1109 55.2749 69.6452 54.1109C71.5077 52.9468 73.1374 50.8515 73.1374 48.5234C73.1374 47.1265 72.439 45.7296 71.7406 44.5656C73.6031 43.1687 74.9999 40.8406 74.9999 38.5125ZM70.1109 38.5125C70.1109 41.539 67.0843 41.7718 66.6187 43.1687C66.1531 44.7984 68.4812 45.264 68.4812 48.0577C68.4812 50.8515 64.989 50.8515 64.5234 52.4812C64.0578 54.3437 65.6874 54.8093 65.6874 57.603V58.0687C65.2218 60.3968 61.7296 60.6296 61.0312 61.5609C60.3328 62.7249 61.0312 63.1905 61.0312 65.7515C61.0312 67.1483 59.4015 68.0796 57.539 68.0796H35.4219C33.5594 68.0796 31.6969 67.1483 29.3687 65.9843C27.5062 65.053 25.6437 64.1218 23.7812 63.6562V39.2109C29.6016 34.7875 37.0515 28.2687 39.8453 20.1203V19.6547L41.9406 8.01406C42.8718 7.78124 43.5703 7.78124 44.7343 7.78124C45.2 7.78124 47.0625 10.575 47.0625 19.4219C47.0625 22.914 46.364 26.639 45.2 31.0625H44.7343C43.3375 31.0625 42.4062 31.9937 42.4062 33.3906C42.4062 34.7875 43.3375 35.7187 44.7343 35.7187H65.6874C68.0156 35.7187 70.1109 36.8828 70.1109 38.5125Z" fill="#00A651"/>
<path d="M19.125 72.9687H5.15624C2.59531 72.9687 0.5 70.8734 0.5 68.3124V35.7187C0.5 33.1578 2.59531 31.0625 5.15624 31.0625H19.125C21.6859 31.0625 23.7812 33.1578 23.7812 35.7187V68.3124C23.7812 70.8734 21.6859 72.9687 19.125 72.9687ZM5.15624 35.7187V68.3124H19.125V35.7187H5.15624Z" fill="#00A651"/>
</g>
<defs>
<clipPath id="clip0">
<rect width="75" height="75" fill="white"/>
</clipPath>
</defs>
</svg>
