<svg width="75" height="75" viewBox="0 0 75 75" fill="none" xmlns="http://www.w3.org/2000/svg">
<path d="M38.5 1L7 11.5V43C7 60.3989 21.1012 74.5 38.5 74.5C55.8989 74.5 70 60.3989 70 43V11.5L38.5 1ZM64.0938 43C64.0938 57.134 52.634 68.5938 38.5 68.5938C24.366 68.5938 12.9063 57.134 12.9063 43V15.9297L38.5 6.90625L64.0938 15.9297V43Z" fill="#00A651"/>
<path d="M27.5405 34.7231C27.2668 34.4481 26.9415 34.2299 26.5832 34.081C26.2249 33.9322 25.8408 33.8555 25.4528 33.8555C25.0648 33.8555 24.6807 33.9322 24.3224 34.081C23.9641 34.2299 23.6388 34.4481 23.3651 34.7231C23.0901 34.9968 22.872 35.3221 22.7231 35.6804C22.5742 36.0386 22.4976 36.4228 22.4976 36.8107C22.4976 37.1987 22.5742 37.5829 22.7231 37.9411C22.872 38.2994 23.0901 38.6247 23.3651 38.8984L33.9799 49.5133L34.1522 49.6856C34.4111 49.945 34.7186 50.1507 35.0572 50.2911C35.3957 50.4316 35.7586 50.5038 36.1251 50.5038C36.4916 50.5038 36.8544 50.4316 37.193 50.2911C37.5315 50.1507 37.839 49.945 38.0979 49.6856L56.4319 31.3516C56.6913 31.0927 56.8971 30.7851 57.0375 30.4466C57.1779 30.1081 57.2502 29.7452 57.2502 29.3787C57.2502 29.0122 57.1779 28.6493 57.0375 28.3108C56.8971 27.9723 56.6913 27.6648 56.4319 27.4059L56.2022 27.1762C55.9433 26.9168 55.6358 26.711 55.2973 26.5706C54.9588 26.4302 54.5959 26.3579 54.2294 26.3579C53.8629 26.3579 53.5 26.4302 53.1615 26.5706C52.8229 26.711 52.5154 26.9168 52.2565 27.1762L36.121 43.3035L27.5405 34.7231Z" fill="#00A651"/>
</svg>
